<svg width="300" height="200" xmlns="http://www.w3.org/2000/svg">
  <defs>
    <linearGradient id="cookieGradient2" x1="0%" y1="0%" x2="100%" y2="100%">
      <stop offset="0%" style="stop-color:#f4e4c1;stop-opacity:1" />
      <stop offset="100%" style="stop-color:#d4a574;stop-opacity:1" />
    </linearGradient>
  </defs>
  
  <g transform="translate(150,100)">
    <path d="M -120,0 Q -120,-40 -80,-50 Q -40,-55 0,-55 Q 40,-55 80,-50 Q 120,-40 120,0 L 60,0 Q 30,-5 0,-5 Q -30,-5 -60,0 Z" fill="url(#cookieGradient2)" stroke="#8b4513" stroke-width="3"/>
    <path d="M -120,0 Q -120,40 -80,50 Q -40,55 0,55 Q 40,55 80,50 Q 120,40 120,0 L 60,0 Q 30,5 0,5 Q -30,5 -60,0 Z" fill="url(#cookieGradient2)" stroke="#8b4513" stroke-width="3"/>
    <rect x="-40" y="-15" width="80" height="30" fill="white" stroke="#333" stroke-width="1" rx="5"/>
    <text x="0" y="5" text-anchor="middle" font-family="Arial" font-size="12" fill="#333">Fortuna</text>
  </g>
</svg>